<svg width="213" height="109" viewBox="0 0 213 109" fill="none" xmlns="http://www.w3.org/2000/svg">
<path d="M21.4062 87H2.23002L23.8351 21.5455H48.1249L69.73 87H50.5539L36.2357 39.571H35.7243L21.4062 87ZM17.8266 61.1761H53.8778V74.4716H17.8266V61.1761Z" fill="#0A369D"/>
<path d="M76.5568 33C76.4811 32.053 76.1259 31.3144 75.4915 30.7841C74.8665 30.2538 73.9148 29.9886 72.6364 29.9886C71.822 29.9886 71.1544 30.0881 70.6335 30.2869C70.1222 30.4763 69.7434 30.7367 69.4972 31.0682C69.2509 31.3996 69.1231 31.7784 69.1136 32.2045C69.0947 32.5549 69.1563 32.8722 69.2983 33.1562C69.4498 33.4309 69.6866 33.6818 70.0085 33.9091C70.3305 34.1269 70.7424 34.3258 71.2443 34.5057C71.7462 34.6856 72.3428 34.8466 73.0341 34.9886L75.4205 35.5C77.0303 35.8409 78.4081 36.2907 79.554 36.8494C80.6998 37.4081 81.6373 38.0663 82.3665 38.8239C83.0956 39.572 83.6307 40.4148 83.9716 41.3523C84.322 42.2898 84.5019 43.3125 84.5114 44.4205C84.5019 46.3333 84.0237 47.9527 83.0767 49.2784C82.1297 50.6042 80.7756 51.6127 79.0142 52.304C77.2623 52.9953 75.1553 53.3409 72.6932 53.3409C70.1648 53.3409 67.9583 52.9669 66.0739 52.2188C64.1989 51.4706 62.7405 50.3201 61.6989 48.767C60.6667 47.2045 60.1458 45.2064 60.1364 42.7727H67.6364C67.6837 43.6629 67.9063 44.411 68.304 45.017C68.7017 45.6231 69.2604 46.0824 69.9801 46.3949C70.7093 46.7074 71.5758 46.8636 72.5795 46.8636C73.4223 46.8636 74.1278 46.7595 74.696 46.5511C75.2642 46.3428 75.6951 46.054 75.9886 45.6847C76.2822 45.3153 76.4337 44.8939 76.4432 44.4205C76.4337 43.9754 76.2869 43.5871 76.0028 43.2557C75.7282 42.9148 75.2737 42.6117 74.6392 42.3466C74.0047 42.072 73.1477 41.8163 72.0682 41.5795L69.1705 40.9545C66.5947 40.3958 64.5634 39.4631 63.0767 38.1562C61.5994 36.84 60.8655 35.0455 60.875 32.7727C60.8655 30.9261 61.358 29.3116 62.3523 27.929C63.3561 26.5369 64.7434 25.4527 66.5142 24.6761C68.2945 23.8996 70.3352 23.5114 72.6364 23.5114C74.9848 23.5114 77.0161 23.9044 78.7301 24.6903C80.4441 25.4763 81.7652 26.5843 82.6932 28.0142C83.6307 29.4347 84.1042 31.0966 84.1136 33H76.5568ZM103.197 33C103.122 32.053 102.767 31.3144 102.132 30.7841C101.507 30.2538 100.555 29.9886 99.277 29.9886C98.4626 29.9886 97.795 30.0881 97.2741 30.2869C96.7628 30.4763 96.384 30.7367 96.1378 31.0682C95.8916 31.3996 95.7637 31.7784 95.7543 32.2045C95.7353 32.5549 95.7969 32.8722 95.9389 33.1562C96.0904 33.4309 96.3272 33.6818 96.6491 33.9091C96.9711 34.1269 97.383 34.3258 97.8849 34.5057C98.3868 34.6856 98.9834 34.8466 99.6747 34.9886L102.061 35.5C103.671 35.8409 105.049 36.2907 106.195 36.8494C107.34 37.4081 108.278 38.0663 109.007 38.8239C109.736 39.572 110.271 40.4148 110.612 41.3523C110.963 42.2898 111.143 43.3125 111.152 44.4205C111.143 46.3333 110.664 47.9527 109.717 49.2784C108.77 50.6042 107.416 51.6127 105.655 52.304C103.903 52.9953 101.796 53.3409 99.3338 53.3409C96.8054 53.3409 94.599 52.9669 92.7145 52.2188C90.8395 51.4706 89.3812 50.3201 88.3395 48.767C87.3073 47.2045 86.7865 45.2064 86.777 42.7727H94.277C94.3243 43.6629 94.5469 44.411 94.9446 45.017C95.3423 45.6231 95.901 46.0824 96.6207 46.3949C97.3499 46.7074 98.2164 46.8636 99.2202 46.8636C100.063 46.8636 100.768 46.7595 101.337 46.5511C101.905 46.3428 102.336 46.054 102.629 45.6847C102.923 45.3153 103.074 44.8939 103.084 44.4205C103.074 43.9754 102.928 43.5871 102.643 43.2557C102.369 42.9148 101.914 42.6117 101.28 42.3466C100.645 42.072 99.7884 41.8163 98.7088 41.5795L95.8111 40.9545C93.2353 40.3958 91.2041 39.4631 89.7173 38.1562C88.2401 36.84 87.5062 35.0455 87.5156 32.7727C87.5062 30.9261 87.9986 29.3116 88.9929 27.929C89.9967 26.5369 91.384 25.4527 93.1548 24.6761C94.9351 23.8996 96.9759 23.5114 99.277 23.5114C101.625 23.5114 103.657 23.9044 105.371 24.6903C107.085 25.4763 108.406 26.5843 109.334 28.0142C110.271 29.4347 110.745 31.0966 110.754 33H103.197ZM142.338 38.4545C142.338 41.6932 141.708 44.4252 140.449 46.6506C139.189 48.8665 137.49 50.5473 135.349 51.6932C133.209 52.8295 130.823 53.3977 128.19 53.3977C125.539 53.3977 123.143 52.8248 121.003 51.679C118.872 50.5237 117.177 48.8381 115.918 46.6222C114.668 44.3968 114.043 41.6742 114.043 38.4545C114.043 35.2159 114.668 32.4886 115.918 30.2727C117.177 28.0473 118.872 26.3665 121.003 25.2301C123.143 24.0843 125.539 23.5114 128.19 23.5114C130.823 23.5114 133.209 24.0843 135.349 25.2301C137.49 26.3665 139.189 28.0473 140.449 30.2727C141.708 32.4886 142.338 35.2159 142.338 38.4545ZM134.213 38.4545C134.213 36.7121 133.981 35.2443 133.517 34.0511C133.062 32.8485 132.385 31.9394 131.486 31.3239C130.596 30.6989 129.497 30.3864 128.19 30.3864C126.884 30.3864 125.78 30.6989 124.881 31.3239C123.991 31.9394 123.313 32.8485 122.849 34.0511C122.395 35.2443 122.168 36.7121 122.168 38.4545C122.168 40.197 122.395 41.6695 122.849 42.8722C123.313 44.0653 123.991 44.9744 124.881 45.5994C125.78 46.215 126.884 46.5227 128.19 46.5227C129.497 46.5227 130.596 46.215 131.486 45.5994C132.385 44.9744 133.062 44.0653 133.517 42.8722C133.981 41.6695 134.213 40.197 134.213 38.4545ZM152.583 23.9091V27.3182C152.583 28.2462 152.394 29.1742 152.015 30.1023C151.646 31.0208 151.172 31.8778 150.594 32.6733C150.026 33.4593 149.439 34.1174 148.833 34.6477L145.594 33C145.992 32.3182 146.347 31.5275 146.66 30.6278C146.972 29.7282 147.129 28.625 147.129 27.3182V23.9091H152.583ZM170.228 53H159.034V23.9091H170.114C173.106 23.9091 175.692 24.4915 177.87 25.6562C180.057 26.8116 181.743 28.4782 182.926 30.6562C184.12 32.8248 184.716 35.4242 184.716 38.4545C184.716 41.4848 184.124 44.089 182.941 46.267C181.757 48.4356 180.081 50.1023 177.912 51.267C175.744 52.4223 173.182 53 170.228 53ZM166.932 46.2955H169.943C171.383 46.2955 172.609 46.0634 173.622 45.5994C174.645 45.1354 175.422 44.3352 175.952 43.1989C176.492 42.0625 176.762 40.4811 176.762 38.4545C176.762 36.428 176.487 34.8466 175.938 33.7102C175.398 32.5739 174.603 31.7737 173.551 31.3097C172.51 30.8456 171.231 30.6136 169.716 30.6136H166.932V46.2955ZM188.37 53V23.9091H209.336V30.2727H196.268V35.2727H208.257V41.6364H196.268V46.6364H209.279V53H188.37Z" fill="#0A369D"/>
<path d="M73.7305 87V61.5455H84.7177C86.6069 61.5455 88.2599 61.8893 89.6768 62.5771C91.0938 63.2648 92.1958 64.255 92.983 65.5476C93.7701 66.8402 94.1637 68.3897 94.1637 70.196C94.1637 72.0189 93.7577 73.556 92.9457 74.8072C92.1419 76.0584 91.0109 77.003 89.5526 77.641C88.1025 78.279 86.408 78.598 84.4691 78.598H77.9066V73.2287H83.0771C83.8891 73.2287 84.581 73.1293 85.1527 72.9304C85.7327 72.7232 86.176 72.396 86.4826 71.9485C86.7975 71.5011 86.9549 70.9169 86.9549 70.196C86.9549 69.4669 86.7975 68.8744 86.4826 68.4187C86.176 67.9547 85.7327 67.6149 85.1527 67.3995C84.581 67.1758 83.8891 67.0639 83.0771 67.0639H80.641V87H73.7305ZM88.6452 75.3168L95.0089 87H87.5018L81.2873 75.3168H88.6452ZM97.1094 87V61.5455H115.455V67.1136H104.02V71.4886H114.51V77.0568H104.02V81.4318H115.405V87H97.1094ZM140.906 61.5455V87H135.139L125.941 73.6264H125.792V87H118.882V61.5455H124.748L133.797 74.8693H133.995V61.5455H140.906ZM166.199 61.5455V87H160.432L151.234 73.6264H151.085V87H144.175V61.5455H150.041L159.09 74.8693H159.288V61.5455H166.199ZM169.468 87V61.5455H187.813V67.1136H176.378V71.4886H186.868V77.0568H176.378V81.4318H187.763V87H169.468ZM204.962 69.5C204.896 68.6714 204.585 68.0251 204.03 67.5611C203.483 67.0971 202.65 66.8651 201.531 66.8651C200.819 66.8651 200.235 66.9521 199.779 67.1261C199.331 67.2918 199 67.5196 198.785 67.8097C198.569 68.0997 198.457 68.4311 198.449 68.804C198.432 69.1106 198.486 69.3881 198.611 69.6367C198.743 69.877 198.95 70.0966 199.232 70.2955C199.514 70.486 199.874 70.66 200.313 70.8175C200.753 70.9749 201.275 71.1158 201.879 71.2401L203.968 71.6875C205.376 71.9858 206.582 72.3794 207.584 72.8683C208.587 73.3571 209.407 73.933 210.045 74.5959C210.683 75.2505 211.151 75.9879 211.45 76.8082C211.756 77.6286 211.914 78.5234 211.922 79.4929C211.914 81.1667 211.495 82.5836 210.667 83.7436C209.838 84.9036 208.653 85.7861 207.112 86.391C205.579 86.9959 203.735 87.2983 201.581 87.2983C199.369 87.2983 197.438 86.971 195.789 86.3164C194.149 85.6618 192.873 84.6551 191.961 83.2962C191.058 81.929 190.602 80.1806 190.594 78.0511H197.156C197.198 78.83 197.393 79.4846 197.741 80.0149C198.089 80.5452 198.577 80.9471 199.207 81.2205C199.845 81.494 200.603 81.6307 201.482 81.6307C202.219 81.6307 202.836 81.5395 203.334 81.3572C203.831 81.175 204.208 80.9222 204.465 80.5991C204.722 80.2759 204.854 79.9072 204.862 79.4929C204.854 79.1035 204.726 78.7637 204.477 78.4737C204.237 78.1754 203.839 77.9103 203.284 77.6783C202.729 77.438 201.979 77.2143 201.034 77.0071L198.499 76.4602C196.245 75.9714 194.468 75.1552 193.167 74.0117C191.874 72.86 191.232 71.2898 191.24 69.3011C191.232 67.6854 191.663 66.2726 192.533 65.0629C193.411 63.8448 194.625 62.8961 196.175 62.2166C197.732 61.5372 199.518 61.1974 201.531 61.1974C203.586 61.1974 205.364 61.5413 206.863 62.229C208.363 62.9168 209.519 63.8862 210.331 65.1374C211.151 66.3803 211.566 67.8345 211.574 69.5H204.962Z" fill="#0A369D"/>
</svg>
