<svg width="38" height="41" viewBox="0 0 38 41" fill="none" xmlns="http://www.w3.org/2000/svg">
<path d="M38 20.5005C38 19.3354 37.5381 18.2181 36.7158 17.3943C35.8935 16.5705 34.7783 16.1077 33.6154 16.1077H20.4615V14.4604C21.716 14.134 22.827 13.3999 23.6204 12.3731C24.4138 11.3464 24.8449 10.085 24.8462 8.78646C24.8462 3.66158 20.0158 0.383487 19.8112 0.246213C19.571 0.0856743 19.2887 0 19 0C18.7113 0 18.429 0.0856743 18.1888 0.246213C17.9842 0.383487 13.1538 3.66158 13.1538 8.78646C13.1551 10.085 13.5862 11.3464 14.3796 12.3731C15.173 13.3999 16.284 14.134 17.5385 14.4604V16.1077H4.38462C3.22174 16.1077 2.1065 16.5705 1.28422 17.3943C0.461949 18.2181 0 19.3354 0 20.5005V24.7706C0.00149953 26.368 0.513707 27.9228 1.46154 29.2073V36.6072C1.46154 37.7723 1.92349 38.8896 2.74576 39.7134C3.56804 40.5372 4.68328 41 5.84615 41H32.1538C33.3167 41 34.432 40.5372 35.2542 39.7134C36.0765 38.8896 36.5385 37.7723 36.5385 36.6072V29.2073C37.4863 27.9228 37.9985 26.368 38 24.7706V20.5005ZM16.0769 8.78646C16.0769 6.30272 17.9038 4.30951 19 3.33395C20.0962 4.30951 21.9231 6.30272 21.9231 8.78646C21.9231 9.56315 21.6151 10.308 21.0669 10.8572C20.5187 11.4064 19.7752 11.715 19 11.715C18.2248 11.715 17.4813 11.4064 16.9331 10.8572C16.3849 10.308 16.0769 9.56315 16.0769 8.78646ZM2.92308 20.5005C2.92308 20.1121 3.07706 19.7397 3.35115 19.4651C3.62524 19.1905 3.99699 19.0362 4.38462 19.0362H33.6154C34.003 19.0362 34.3748 19.1905 34.6488 19.4651C34.9229 19.7397 35.0769 20.1121 35.0769 20.5005V24.7706C35.0769 27.1958 33.166 29.2201 30.8165 29.2842C30.2305 29.3008 29.6471 29.1995 29.1009 28.9864C28.5546 28.7732 28.0566 28.4524 27.6362 28.043C27.2158 27.6337 26.8816 27.144 26.6535 26.603C26.4253 26.0619 26.3077 25.4806 26.3077 24.8932C26.3077 24.5049 26.1537 24.1325 25.8796 23.8578C25.6055 23.5832 25.2338 23.429 24.8462 23.429C24.4585 23.429 24.0868 23.5832 23.8127 23.8578C23.5386 24.1325 23.3846 24.5049 23.3846 24.8932C23.3846 26.0583 22.9227 27.1756 22.1004 27.9994C21.2781 28.8232 20.1629 29.286 19 29.286C17.8371 29.286 16.7219 28.8232 15.8996 27.9994C15.0773 27.1756 14.6154 26.0583 14.6154 24.8932C14.6154 24.5049 14.4614 24.1325 14.1873 23.8578C13.9132 23.5832 13.5415 23.429 13.1538 23.429C12.7662 23.429 12.3945 23.5832 12.1204 23.8578C11.8463 24.1325 11.6923 24.5049 11.6923 24.8932C11.6925 25.4807 11.5751 26.0623 11.3471 26.6035C11.119 27.1448 10.7849 27.6346 10.3645 28.0442C9.94408 28.4538 9.44594 28.7747 8.89956 28.988C8.35317 29.2013 7.76963 29.3026 7.18346 29.286C4.83404 29.2201 2.92308 27.1958 2.92308 24.7706V20.5005ZM32.1538 38.0715H5.84615C5.45853 38.0715 5.08678 37.9172 4.81269 37.6426C4.5386 37.368 4.38462 36.9956 4.38462 36.6072V31.5849C5.24014 31.9732 6.16422 32.1873 7.10308 32.2145C8.07985 32.2449 9.05268 32.0772 9.96313 31.7215C10.8736 31.3658 11.7029 30.8293 12.4012 30.1444C12.6738 29.8782 12.9254 29.5912 13.1538 29.286C13.8345 30.1953 14.7172 30.9333 15.7319 31.4416C16.7466 31.9499 17.8655 32.2145 19 32.2145C20.1345 32.2145 21.2534 31.9499 22.2681 31.4416C23.2828 30.9333 24.1655 30.1953 24.8462 29.286C25.0753 29.59 25.3275 29.8757 25.6007 30.1407C26.9603 31.475 28.7892 32.2198 30.6923 32.2145H30.9006C31.8382 32.1868 32.761 31.9728 33.6154 31.5849V36.6072C33.6154 36.9956 33.4614 37.368 33.1873 37.6426C32.9132 37.9172 32.5415 38.0715 32.1538 38.0715Z" fill="#0A369D"/>
</svg>
