<svg width="53" height="41" viewBox="0 0 53 41" fill="none" xmlns="http://www.w3.org/2000/svg">
<path d="M50.9615 0H2.03846C1.49783 0 0.979337 0.215982 0.597051 0.600432C0.214766 0.984881 0 1.50631 0 2.05V36.9C0 37.9874 0.429532 39.0302 1.1941 39.7991C1.95867 40.568 2.99566 41 4.07692 41H48.9231C50.0043 41 51.0413 40.568 51.8059 39.7991C52.5705 39.0302 53 37.9874 53 36.9V2.05C53 1.50631 52.7852 0.984881 52.4029 0.600432C52.0207 0.215982 51.5022 0 50.9615 0ZM26.5 21.8197L7.27986 4.1H45.7201L26.5 21.8197ZM19.0367 20.5L4.07692 34.2888V6.71119L19.0367 20.5ZM22.0536 23.2803L25.1113 26.1119C25.4874 26.4591 25.9793 26.6517 26.4898 26.6517C27.0003 26.6517 27.4922 26.4591 27.8683 26.1119L30.926 23.2803L45.7049 36.9H7.27986L22.0536 23.2803ZM33.9633 20.5L48.9231 6.70862V34.2914L33.9633 20.5Z" fill="#0A369D"/>
</svg>
