<svg width="36" height="41" viewBox="0 0 36 41" fill="none" xmlns="http://www.w3.org/2000/svg">
<path d="M23.5355 5.64162C23.5355 4.52581 23.2107 3.43506 22.6022 2.5073C21.9937 1.57955 21.1289 0.856445 20.117 0.429445C19.1051 0.0024444 17.9916 -0.109278 16.9174 0.108405C15.8432 0.326087 14.8565 0.863399 14.082 1.65239C13.3075 2.44139 12.7801 3.44663 12.5664 4.54099C12.3528 5.63536 12.4624 6.7697 12.8816 7.80057C13.3007 8.83144 14.0105 9.71254 14.9212 10.3324C15.8318 10.9524 16.9025 11.2832 17.9978 11.2832C19.4665 11.2832 20.875 10.6888 21.9136 9.63084C22.9521 8.57283 23.5355 7.13787 23.5355 5.64162ZM17.9978 8.46242C17.4501 8.46242 16.9148 8.29699 16.4595 7.98703C16.0041 7.67708 15.6492 7.23653 15.4397 6.72109C15.2301 6.20566 15.1753 5.63849 15.2821 5.0913C15.3889 4.54412 15.6527 4.0415 16.0399 3.647C16.4271 3.25251 16.9205 2.98385 17.4576 2.87501C17.9947 2.76617 18.5514 2.82203 19.0574 3.03553C19.5633 3.24903 19.9958 3.61058 20.3 4.07446C20.6043 4.53834 20.7666 5.08371 20.7666 5.64162C20.7666 6.38974 20.4749 7.10722 19.9557 7.63623C19.4364 8.16523 18.7321 8.46242 17.9978 8.46242ZM35.9089 14.0529C35.7513 13.263 35.3279 12.554 34.7118 12.0483C34.0956 11.5426 33.3255 11.272 32.5344 11.2832H3.4612C2.67221 11.2832 1.9069 11.5578 1.29206 12.0615C0.677232 12.5653 0.249788 13.2679 0.0805573 14.0529C-0.0886729 14.838 0.0104695 15.6584 0.361557 16.3783C0.712644 17.0981 1.2946 17.6741 2.011 18.0109H2.0335L10.816 21.9512L7.18187 36.0058C6.80161 36.8592 6.76968 37.8314 7.09308 38.7088C7.41648 39.5861 8.06874 40.2966 8.90636 40.684C9.74398 41.0714 10.6983 41.1039 11.5595 40.7744C12.4207 40.445 13.1181 39.7805 13.4984 38.9271L17.9978 31.0165L22.4972 38.9271C22.897 39.7441 23.5923 40.3712 24.4368 40.6766C25.2812 40.982 26.209 40.9418 27.025 40.5646C27.841 40.1873 28.4815 39.5023 28.8119 38.6538C29.1422 37.8052 29.1367 36.8591 28.7964 36.0147L25.1622 21.96L33.9448 18.0197H33.9672C34.6952 17.6942 35.288 17.119 35.6428 16.3943C35.9975 15.6696 36.0917 14.8411 35.9089 14.0529ZM32.8285 15.4457L22.9766 19.8638C22.6749 19.9992 22.4306 20.2397 22.2876 20.5422C22.1445 20.8447 22.1121 21.1893 22.1961 21.5139L26.1538 36.8468C26.174 36.9289 26.2024 37.0086 26.2386 37.0848C26.2967 37.2113 26.3166 37.3526 26.2958 37.4906C26.2749 37.6287 26.2143 37.7573 26.1217 37.8602C26.029 37.9632 25.9084 38.0357 25.7752 38.0687C25.6419 38.1017 25.5021 38.0937 25.3734 38.0456C25.2013 37.9813 25.0612 37.8501 24.984 37.6807C24.9665 37.6426 24.9468 37.6055 24.9251 37.5696L19.1953 27.5029C19.0736 27.2891 18.8989 27.1117 18.6888 26.9884C18.4786 26.8651 18.2403 26.8002 17.9978 26.8002C17.7552 26.8002 17.517 26.8651 17.3068 26.9884C17.0966 27.1117 16.9219 27.2891 16.8002 27.5029L11.0756 37.5608C11.0539 37.5967 11.0343 37.6338 11.0168 37.6719C10.9395 37.8413 10.7995 37.9725 10.6274 38.0368C10.4987 38.0849 10.3588 38.0929 10.2256 38.0599C10.0924 38.0269 9.97177 37.9544 9.87909 37.8514C9.7864 37.7485 9.7258 37.6199 9.70498 37.4818C9.68415 37.3438 9.70404 37.2025 9.76211 37.076C9.79831 36.9998 9.82673 36.9201 9.84691 36.838L13.7995 21.5087C13.8835 21.184 13.851 20.8394 13.708 20.5369C13.5649 20.2344 13.3206 19.9939 13.019 19.8585L3.167 15.4457C3.02559 15.3769 2.91125 15.2613 2.84268 15.1178C2.77412 14.9743 2.75538 14.8113 2.78955 14.6555C2.82371 14.4997 2.90874 14.3603 3.03075 14.2601C3.15275 14.16 3.30451 14.1049 3.4612 14.104H32.5344C32.6915 14.1037 32.844 14.1579 32.9669 14.2577C33.0898 14.3574 33.1758 14.4968 33.2106 14.6529C33.2454 14.809 33.2271 14.9725 33.1586 15.1166C33.0901 15.2607 32.9756 15.3767 32.8337 15.4457H32.8285Z" fill="#0A369D"/>
</svg>
