<svg width="41" height="41" viewBox="0 0 41 41" fill="none" xmlns="http://www.w3.org/2000/svg">
<path d="M32.4583 17.0833C32.4583 17.5364 32.2784 17.9709 31.958 18.2913C31.6376 18.6117 31.2031 18.7917 30.75 18.7917H17.0833C16.6303 18.7917 16.1957 18.6117 15.8754 18.2913C15.555 17.9709 15.375 17.5364 15.375 17.0833C15.375 16.6303 15.555 16.1957 15.8754 15.8754C16.1957 15.555 16.6303 15.375 17.0833 15.375H30.75C31.2031 15.375 31.6376 15.555 31.958 15.8754C32.2784 16.1957 32.4583 16.6303 32.4583 17.0833ZM30.75 22.2083H17.0833C16.6303 22.2083 16.1957 22.3883 15.8754 22.7087C15.555 23.0291 15.375 23.4636 15.375 23.9167C15.375 24.3697 15.555 24.8043 15.8754 25.1246C16.1957 25.445 16.6303 25.625 17.0833 25.625H30.75C31.2031 25.625 31.6376 25.445 31.958 25.1246C32.2784 24.8043 32.4583 24.3697 32.4583 23.9167C32.4583 23.4636 32.2784 23.0291 31.958 22.7087C31.6376 22.3883 31.2031 22.2083 30.75 22.2083ZM41 3.41667V37.5833C41 38.4895 40.64 39.3585 39.9993 39.9993C39.3585 40.64 38.4895 41 37.5833 41H3.41667C2.51051 41 1.64147 40.64 1.00072 39.9993C0.359969 39.3585 0 38.4895 0 37.5833V3.41667C0 2.51051 0.359969 1.64147 1.00072 1.00072C1.64147 0.359969 2.51051 0 3.41667 0H37.5833C38.4895 0 39.3585 0.359969 39.9993 1.00072C40.64 1.64147 41 2.51051 41 3.41667ZM3.41667 37.5833H8.54167V3.41667H3.41667V37.5833ZM37.5833 37.5833V3.41667H11.9583V37.5833H37.5833Z" fill="#0A369D"/>
</svg>
